<?xml version="1.0" encoding="UTF-8"?>
<svg width="256" height="256" viewBox="0 0 256 256" xmlns="http://www.w3.org/2000/svg">
  <g fill="none" fill-rule="evenodd">
    <rect fill="#300D4F" width="256" height="256" rx="12"/>
    <path d="M41.17 105.15v33.32l-17.25-9.73v-33.33l17.25 9.74zm0-33v19.03l-17.25-9.73v-19.02l17.25 9.72zm17.25 0v19.03l-17.25-9.73v-19.02l17.25 9.72zm17.25 9.73v38.53l-17.25-9.73v-38.53l17.25 9.73zm17.25 28.8v38.53l-17.25-9.73v-38.53l17.25 9.73zm17.26-9.72v29.05l-17.26-9.73v-29.05l17.26 9.73zm17.25-9.73v29.05l-17.25-9.73v-29.05l17.25 9.73zm17.25-9.73v29.05l-17.25-9.73v-29.05l17.25 9.73zm17.25-9.73v29.05l-17.25-9.73v-29.05l17.25 9.73zm14.76-9.73v66.55l-14.76-8.45v-48.28l14.76-9.82z" fill="#FFF" fill-rule="nonzero"/>
  </g>
</svg>
